<svg id="svg5" width="650" height="150" version="1.1" viewBox="0 0 172 39.7" xml:space="preserve" xmlns="http://www.w3.org/2000/svg"><g id="layer2"><rect id="rect20377" x="82" y="9.55" width="26.2" height="20.4" fill="#fff" stroke="#fff" stroke-linecap="square" stroke-linejoin="round" stroke-miterlimit="3.1" stroke-width="3.97"/><circle id="path21362" cx="84.7" cy="18.1" r=".0498" fill="#eee" stroke="#ccc" stroke-width=".265"/><circle id="path21364" cx="88.5" cy="21.3" r=".0249" fill="#eee" stroke="#ccc" stroke-width=".265"/></g><g id="layer1" transform="translate(-30.4 -31.8)"><path id="path184" d="m122 51.7q-0.278 0-0.47 0.192t-0.192 0.47q0 0.278 0.192 0.47t0.47 0.192q0.278 0 0.47-0.192t0.192-0.47q0-0.278-0.192-0.47t-0.47-0.192zm0 5.48q-0.278 0-0.47 0.192t-0.192 0.47q0 0.278 0.192 0.47t0.47 0.192q0.278 0 0.47-0.192t0.192-0.47q0-0.278-0.192-0.47t-0.47-0.192zm-1.76-7.09h8.61q0.212 0 0.337 0.126 0.126 0.126 0.126 0.337v3.56q0 0.225-0.126 0.384-0.126 0.159-0.337 0.159h-8.61q-0.198 0-0.324-0.159t-0.126-0.384v-3.56q0-0.212 0.126-0.337t0.324-0.126zm0.344 0.794v2.98h7.94v-2.98zm-0.344 4.67h8.56q0.198 0 0.357 0.165 0.159 0.165 0.159 0.377v3.49q0 0.265-0.159 0.403-0.159 0.139-0.357 0.139h-8.49q-0.212 0-0.364-0.139-0.152-0.139-0.152-0.403v-3.49q0-0.212 0.126-0.377 0.126-0.165 0.324-0.165zm0.344 0.794v2.99h7.94v-2.99zm0-5.46v2.98zm0 5.46v2.99z" stroke-width=".265"/><path id="path7743-5-0" d="m96.6 59.6-0.755-0.733 1.85-1.86-11.3 0.033-3e-3 -1.05 11.3-0.0331-1.86-1.85 0.733-0.737 3.13 3.11z" fill="#008000" stroke-width=".35"/><circle id="path9021-4-9" cx="93.1" cy="47" r="4.15" fill="#008000"/><text id="text9163-9-8" x="90.986" y="49.208858" fill="#ffffff" font-family="sans-serif" font-size="6.54px" stroke-width=".35" style="line-height:1.25" xml:space="preserve"><tspan id="tspan9161-7-0" x="90.986" y="49.208858" fill="#ffffff" font-size="6.54px" stroke-width=".35">1</tspan></text><path id="path7743-5-0-9" d="m160 59.6-0.755-0.733 1.85-1.86-11.3 0.033-3e-3 -1.05 11.3-0.0331-1.86-1.85 0.733-0.737 3.13 3.11z" fill="#008000" stroke-width=".35"/><g><circle id="path9021-4-9-0" cx="156" cy="47" r="4.15" fill="#008000"/><g font-family="sans-serif"><text id="text9163-9-8-5" x="153.98599" y="49.208855" fill="#ffffff" font-size="6.54px" stroke-width=".35" style="line-height:1.25" xml:space="preserve"><tspan id="tspan9161-7-0-6" x="153.98599" y="49.208855" fill="#ffffff" font-size="6.54px" stroke-width=".35">2</tspan></text><text id="text9231" x="49.153103" y="37.800755" fill="#000000" font-size="10.6px" stroke-width=".265" style="line-height:1.25" xml:space="preserve"><tspan id="tspan9229" x="49.153103" y="37.800755" stroke-width=".265"/></text><text id="text12874-1" x="116.21708" y="46.697868" fill="#000000" font-size="7.06px" stroke-width=".265" style="line-height:1.25" xml:space="preserve"><tspan id="tspan12872-7" x="116.21708" y="46.697868" font-family="'Mukta Mahee'" font-size="7.06px" stroke-width=".265">MTS-K</tspan></text></g><rect id="rect20377-4" x="39.2" y="41.5" width="32.6" height="20" fill="#fff" stroke="#fff" stroke-linecap="square" stroke-linejoin="round" stroke-miterlimit="3.1" stroke-width="4.38"/></g><path id="path9" d="m52.2 51.5v-8.73q0-0.317 0.238-0.556 0.238-0.238 0.556-0.238h3.56q0.318 0 0.556 0.238 0.238 0.238 0.238 0.556v3.81h0.86q0.278 0 0.47 0.192 0.192 0.192 0.192 0.47v2.9q0 0.291 0.205 0.483t0.496 0.192q0.291 0 0.496-0.192t0.205-0.483v-3.9q-0.146 0.0794-0.304 0.119-0.159 0.0397-0.318 0.0397-0.516 0-0.88-0.364t-0.364-0.88q0-0.423 0.238-0.754 0.238-0.331 0.635-0.437l-1.26-1.26 0.476-0.463 2.02 2.02q0.185 0.185 0.298 0.403t0.112 0.483v4.99q0 0.569-0.397 0.966-0.397 0.397-0.966 0.397-0.569 0-0.966-0.397-0.397-0.397-0.397-0.966v-2.9h-0.86v4.26zm0.794-5.72h3.56v-3.02h-3.56zm6.65-0.0529q0.238 0 0.41-0.172t0.172-0.41q0-0.238-0.172-0.41t-0.41-0.172q-0.238 0-0.41 0.172-0.172 0.172-0.172 0.41 0 0.238 0.172 0.41 0.172 0.172 0.41 0.172z" stroke-width=".265"/><text id="text12874" x="40.857525" y="60.230579" fill="#000000" font-family="sans-serif" font-size="7.06px" stroke-width=".265" style="line-height:1.25" xml:space="preserve"><tspan id="tspan12872" x="40.857525" y="60.230579" font-family="'Mukta Mahee'" font-size="7.06px" stroke-width=".265">Tankstelle</tspan></text><rect id="rect20377-4-8" x="172" y="40.7" width="20.9" height="22" fill="#fff" stroke="#fff" stroke-linecap="square" stroke-linejoin="round" stroke-miterlimit="3.1" stroke-width="3.68"/><path id="path201" d="m180 53.2q-0.318 0-0.556-0.238-0.238-0.238-0.238-0.556v-10.1q0-0.318 0.238-0.556 0.238-0.238 0.556-0.238h5.82q0.318 0 0.556 0.238 0.238 0.238 0.238 0.556v10.1q0 0.318-0.238 0.556-0.238 0.238-0.556 0.238zm0-1.98h5.82v-7.67h-5.82z" stroke-width=".265"/><text id="text12874-4" x="177.41177" y="60.549923" fill="#000000" font-family="sans-serif" font-size="7.06px" stroke-width=".265" style="line-height:1.25" xml:space="preserve"><tspan id="tspan12872-0" x="177.41177" y="60.549923" font-family="'Mukta Mahee'" font-size="7.06px" stroke-width=".265">App</tspan></text></g></svg>
